<mxfile host="app.diagrams.net" modified="2023-12-08T01:39:37.564Z" agent="Mozilla/5.0 (Windows NT 10.0; Win64; x64) AppleWebKit/537.36 (KHTML, like Gecko) Chrome/119.0.0.0 Safari/537.36" etag="DIRWuMNQQTpf4LhDTfjP" version="22.1.7" type="device">
  <diagram name="Page-1" id="J_NiCZL-PPgqrKHo_S9Y">
    <mxGraphModel dx="230" dy="309" grid="1" gridSize="10" guides="1" tooltips="1" connect="1" arrows="1" fold="1" page="1" pageScale="1" pageWidth="850" pageHeight="1100" math="0" shadow="0">
      <root>
        <mxCell id="0" />
        <mxCell id="1" parent="0" />
        <mxCell id="6p2GN63daYN8jev6NqQu-2" value="Borrower" style="shape=umlLifeline;perimeter=lifelinePerimeter;whiteSpace=wrap;html=1;container=1;dropTarget=0;collapsible=0;recursiveResize=0;outlineConnect=0;portConstraint=eastwest;newEdgeStyle={&quot;curved&quot;:0,&quot;rounded&quot;:0};participant=umlActor;verticalAlign=top;spacingTop=36;" vertex="1" parent="1">
          <mxGeometry x="30" y="40" width="20" height="700" as="geometry" />
        </mxCell>
        <mxCell id="6p2GN63daYN8jev6NqQu-3" value="" style="html=1;points=[[0,0,0,0,5],[0,1,0,0,-5],[1,0,0,0,5],[1,1,0,0,-5]];perimeter=orthogonalPerimeter;outlineConnect=0;targetShapes=umlLifeline;portConstraint=eastwest;newEdgeStyle={&quot;curved&quot;:0,&quot;rounded&quot;:0};" vertex="1" parent="6p2GN63daYN8jev6NqQu-2">
          <mxGeometry x="5" y="80" width="10" height="260" as="geometry" />
        </mxCell>
        <mxCell id="6p2GN63daYN8jev6NqQu-4" value="Librarian" style="shape=umlLifeline;perimeter=lifelinePerimeter;whiteSpace=wrap;html=1;container=1;dropTarget=0;collapsible=0;recursiveResize=0;outlineConnect=0;portConstraint=eastwest;newEdgeStyle={&quot;curved&quot;:0,&quot;rounded&quot;:0};participant=umlActor;verticalAlign=top;spacingTop=36;" vertex="1" parent="1">
          <mxGeometry x="190" y="40" width="20" height="720" as="geometry" />
        </mxCell>
        <mxCell id="6p2GN63daYN8jev6NqQu-6" value="" style="html=1;points=[[0,0,0,0,5],[0,1,0,0,-5],[1,0,0,0,5],[1,1,0,0,-5]];perimeter=orthogonalPerimeter;outlineConnect=0;targetShapes=umlLifeline;portConstraint=eastwest;newEdgeStyle={&quot;curved&quot;:0,&quot;rounded&quot;:0};" vertex="1" parent="6p2GN63daYN8jev6NqQu-4">
          <mxGeometry x="5" y="100" width="10" height="220" as="geometry" />
        </mxCell>
        <mxCell id="6p2GN63daYN8jev6NqQu-8" value="6: 고지 및 회원증을 발급해준다." style="html=1;verticalAlign=bottom;endArrow=open;dashed=1;endSize=8;curved=0;rounded=0;exitX=0;exitY=1;exitDx=0;exitDy=-5;" edge="1" source="6p2GN63daYN8jev6NqQu-6" parent="1" target="6p2GN63daYN8jev6NqQu-3">
          <mxGeometry relative="1" as="geometry">
            <mxPoint x="125" y="225" as="targetPoint" />
          </mxGeometry>
        </mxCell>
        <mxCell id="6p2GN63daYN8jev6NqQu-7" value="1: registerOneBorrower&lt;br style=&quot;border-color: var(--border-color);&quot;&gt;(name: String)" style="html=1;verticalAlign=bottom;endArrow=block;curved=0;rounded=0;entryX=0;entryY=0;entryDx=0;entryDy=5;" edge="1" target="6p2GN63daYN8jev6NqQu-6" parent="1" source="6p2GN63daYN8jev6NqQu-3">
          <mxGeometry relative="1" as="geometry">
            <mxPoint x="125" y="155" as="sourcePoint" />
          </mxGeometry>
        </mxCell>
        <mxCell id="6p2GN63daYN8jev6NqQu-14" value="&lt;u style=&quot;border-color: var(--border-color);&quot;&gt;app: LibraryApplication&lt;/u&gt;" style="shape=umlLifeline;perimeter=lifelinePerimeter;whiteSpace=wrap;html=1;container=1;dropTarget=0;collapsible=0;recursiveResize=0;outlineConnect=0;portConstraint=eastwest;newEdgeStyle={&quot;curved&quot;:0,&quot;rounded&quot;:0};" vertex="1" parent="1">
          <mxGeometry x="290" y="40" width="140" height="720" as="geometry" />
        </mxCell>
        <mxCell id="6p2GN63daYN8jev6NqQu-16" value="" style="html=1;points=[[0,0,0,0,5],[0,1,0,0,-5],[1,0,0,0,5],[1,1,0,0,-5]];perimeter=orthogonalPerimeter;outlineConnect=0;targetShapes=umlLifeline;portConstraint=eastwest;newEdgeStyle={&quot;curved&quot;:0,&quot;rounded&quot;:0};" vertex="1" parent="6p2GN63daYN8jev6NqQu-14">
          <mxGeometry x="65" y="120" width="10" height="180" as="geometry" />
        </mxCell>
        <mxCell id="6p2GN63daYN8jev6NqQu-18" value="2: registerOneBorrower&lt;br style=&quot;border-color: var(--border-color);&quot;&gt;(name: String)" style="html=1;verticalAlign=bottom;endArrow=block;curved=0;rounded=0;entryX=0;entryY=0;entryDx=0;entryDy=5;" edge="1" target="6p2GN63daYN8jev6NqQu-16" parent="1" source="6p2GN63daYN8jev6NqQu-6">
          <mxGeometry relative="1" as="geometry">
            <mxPoint x="205" y="145" as="sourcePoint" />
          </mxGeometry>
        </mxCell>
        <mxCell id="6p2GN63daYN8jev6NqQu-17" value="5: isRegistered: boolean" style="html=1;verticalAlign=bottom;endArrow=open;dashed=1;endSize=8;curved=0;rounded=0;exitX=0;exitY=1;exitDx=0;exitDy=-5;exitPerimeter=0;" edge="1" source="6p2GN63daYN8jev6NqQu-16" parent="1" target="6p2GN63daYN8jev6NqQu-6">
          <mxGeometry relative="1" as="geometry">
            <mxPoint x="205" y="355" as="targetPoint" />
          </mxGeometry>
        </mxCell>
        <mxCell id="6p2GN63daYN8jev6NqQu-21" value="&lt;u style=&quot;border-color: var(--border-color);&quot;&gt;borrowerCollection: {Borrower}&lt;/u&gt;" style="shape=umlLifeline;perimeter=lifelinePerimeter;whiteSpace=wrap;html=1;container=1;dropTarget=0;collapsible=0;recursiveResize=0;outlineConnect=0;portConstraint=eastwest;newEdgeStyle={&quot;curved&quot;:0,&quot;rounded&quot;:0};" vertex="1" parent="1">
          <mxGeometry x="450" y="40" width="140" height="720" as="geometry" />
        </mxCell>
        <mxCell id="6p2GN63daYN8jev6NqQu-28" value="" style="html=1;points=[[0,0,0,0,5],[0,1,0,0,-5],[1,0,0,0,5],[1,1,0,0,-5]];perimeter=orthogonalPerimeter;outlineConnect=0;targetShapes=umlLifeline;portConstraint=eastwest;newEdgeStyle={&quot;curved&quot;:0,&quot;rounded&quot;:0};" vertex="1" parent="6p2GN63daYN8jev6NqQu-21">
          <mxGeometry x="65" y="180" width="10" height="40" as="geometry" />
        </mxCell>
        <mxCell id="6p2GN63daYN8jev6NqQu-23" value="&lt;u style=&quot;border-color: var(--border-color);&quot;&gt;borrower: Borrower&lt;/u&gt;" style="shape=umlLifeline;perimeter=lifelinePerimeter;whiteSpace=wrap;html=1;container=1;dropTarget=0;collapsible=0;recursiveResize=0;outlineConnect=0;portConstraint=eastwest;newEdgeStyle={&quot;curved&quot;:0,&quot;rounded&quot;:0};" vertex="1" parent="1">
          <mxGeometry x="620" y="160" width="120" height="600" as="geometry" />
        </mxCell>
        <mxCell id="6p2GN63daYN8jev6NqQu-31" value="" style="html=1;points=[[0,0,0,0,5],[0,1,0,0,-5],[1,0,0,0,5],[1,1,0,0,-5]];perimeter=orthogonalPerimeter;outlineConnect=0;targetShapes=umlLifeline;portConstraint=eastwest;newEdgeStyle={&quot;curved&quot;:0,&quot;rounded&quot;:0};" vertex="1" parent="6p2GN63daYN8jev6NqQu-23">
          <mxGeometry x="55" y="120" width="10" height="40" as="geometry" />
        </mxCell>
        <mxCell id="6p2GN63daYN8jev6NqQu-27" value="3: Borrower(name: String)" style="html=1;verticalAlign=bottom;labelBackgroundColor=none;endArrow=open;endFill=0;dashed=1;rounded=0;" edge="1" parent="1" source="6p2GN63daYN8jev6NqQu-16">
          <mxGeometry width="160" relative="1" as="geometry">
            <mxPoint x="430" y="260" as="sourcePoint" />
            <mxPoint x="620" y="180" as="targetPoint" />
          </mxGeometry>
        </mxCell>
        <mxCell id="6p2GN63daYN8jev6NqQu-29" value="4.1: add(borrower: Borrower)" style="html=1;verticalAlign=bottom;endArrow=block;curved=0;rounded=0;entryX=1;entryY=0;entryDx=0;entryDy=5;" edge="1" target="6p2GN63daYN8jev6NqQu-28" parent="1" source="6p2GN63daYN8jev6NqQu-23">
          <mxGeometry relative="1" as="geometry">
            <mxPoint x="650" y="275" as="sourcePoint" />
          </mxGeometry>
        </mxCell>
        <mxCell id="6p2GN63daYN8jev6NqQu-30" value="4.2: isAdded: boolean" style="html=1;verticalAlign=bottom;endArrow=open;dashed=1;endSize=8;curved=0;rounded=0;exitX=1;exitY=1;exitDx=0;exitDy=-5;" edge="1" source="6p2GN63daYN8jev6NqQu-28" parent="1" target="6p2GN63daYN8jev6NqQu-23">
          <mxGeometry relative="1" as="geometry">
            <mxPoint x="650" y="345" as="targetPoint" />
          </mxGeometry>
        </mxCell>
        <mxCell id="6p2GN63daYN8jev6NqQu-32" value="4.3: display()" style="html=1;verticalAlign=bottom;startArrow=none;endArrow=block;startSize=8;curved=0;rounded=0;entryX=0;entryY=0;entryDx=0;entryDy=5;startFill=0;" edge="1" target="6p2GN63daYN8jev6NqQu-31" parent="1" source="6p2GN63daYN8jev6NqQu-16">
          <mxGeometry relative="1" as="geometry">
            <mxPoint x="605" y="295" as="sourcePoint" />
          </mxGeometry>
        </mxCell>
        <mxCell id="6p2GN63daYN8jev6NqQu-33" value="void" style="html=1;verticalAlign=bottom;endArrow=open;dashed=1;endSize=8;curved=0;rounded=0;exitX=0;exitY=1;exitDx=0;exitDy=-5;exitPerimeter=0;" edge="1" parent="1" source="6p2GN63daYN8jev6NqQu-31" target="6p2GN63daYN8jev6NqQu-16">
          <mxGeometry relative="1" as="geometry">
            <mxPoint x="630" y="250" as="sourcePoint" />
            <mxPoint x="550" y="250" as="targetPoint" />
          </mxGeometry>
        </mxCell>
      </root>
    </mxGraphModel>
  </diagram>
</mxfile>
